{
  "accessors": [
    {
      "bufferView": 2,
      "componentType": 5126,
      "count": 905,
      "max": [
        4.65000057220459,
        0.11906998604536057,
        2.40000057220459
      ],
      "min": [
        -2.6499998569488525,
        -0.129069983959198,
        -2.3999996185302734
      ],
      "type": "VEC3"
    },
    {
      "bufferView": 2,
      "byteOffset": 10860,
      "componentType": 5126,
      "count": 905,
      "max": [
        1.0,
        1.0,
        1.0
      ],
      "min": [
        -1.0,
        -0.9999971985816956,
        -1.0
      ],
      "type": "VEC3"
    },
    {
      "bufferView": 1,
      "componentType": 5126,
      "count": 905,
      "max": [
        0.9807335138320923,
        0.9873690605163574
      ],
      "min": [
        0.0,
        0.0
      ],
      "type": "VEC2"
    },
    {
      "bufferView": 0,
      "componentType": 5125,
      "count": 2547,
      "type": "SCALAR"
    },
    {
      "bufferView": 2,
      "byteOffset": 21720,
      "componentType": 5126,
      "count": 8,
      "max": [
        2.917182207107544,
        0.10906998813152313,
        -0.8475468754768372
      ],
      "min": [
        0.9736551642417908,
        0.10906998813152313,
        -0.902133047580719
      ],
      "type": "VEC3"
    },
    {
      "bufferView": 2,
      "byteOffset": 21816,
      "componentType": 5126,
      "count": 8,
      "max": [
        1.033202323696969e-07,
        1.0,
        -0.0
      ],
      "min": [
        0.0,
        1.0,
        -0.0
      ],
      "type": "VEC3"
    },
    {
      "bufferView": 1,
      "byteOffset": 7240,
      "componentType": 5126,
      "count": 8,
      "max": [
        0.4486734867095947,
        0.681054413318634
      ],
      "min": [
        0.3914039731025696,
        0.5908074378967285
      ],
      "type": "VEC2"
    },
    {
      "bufferView": 0,
      "byteOffset": 10188,
      "componentType": 5125,
      "count": 12,
      "type": "SCALAR"
    },
    {
      "bufferView": 2,
      "byteOffset": 21912,
      "componentType": 5126,
      "count": 64,
      "max": [
        -2.2309234142303467,
        0.10533738881349564,
        2.0752909183502197
      ],
      "min": [
        -2.486830949783325,
        0.10533738881349564,
        1.8193833827972412
      ],
      "type": "VEC3"
    },
    {
      "bufferView": 2,
      "byteOffset": 22680,
      "componentType": 5126,
      "count": 64,
      "max": [
        6.575435236300109e-07,
        1.0,
        -0.0
      ],
      "min": [
        -6.575452289325767e-07,
        1.0,
        -0.0
      ],
      "type": "VEC3"
    },
    {
      "bufferView": 1,
      "byteOffset": 7304,
      "componentType": 5126,
      "count": 64,
      "max": [
        0.41231033205986023,
        0.9722027778625488
      ],
      "min": [
        0.3950917720794678,
        0.9549795389175415
      ],
      "type": "VEC2"
    },
    {
      "bufferView": 0,
      "byteOffset": 10236,
      "componentType": 5125,
      "count": 192,
      "type": "SCALAR"
    },
    {
      "bufferView": 2,
      "byteOffset": 23448,
      "componentType": 5126,
      "count": 330,
      "max": [
        4.65000057220459,
        0.0461554154753685,
        2.2391154766082764
      ],
      "min": [
        -2.6499998569488525,
        -0.08646409958600998,
        0.34328973293304443
      ],
      "type": "VEC3"
    },
    {
      "bufferView": 2,
      "byteOffset": 27408,
      "componentType": 5126,
      "count": 330,
      "max": [
        1.0,
        1.0,
        1.0
      ],
      "min": [
        -1.0,
        -1.0,
        -1.0
      ],
      "type": "VEC3"
    },
    {
      "bufferView": 1,
      "byteOffset": 7816,
      "componentType": 5126,
      "count": 330,
      "max": [
        0.986285388469696,
        0.9967184662818909
      ],
      "min": [
        0.3242610991001129,
        0.47304782271385193
      ],
      "type": "VEC2"
    },
    {
      "bufferView": 0,
      "byteOffset": 11004,
      "componentType": 5125,
      "count": 780,
      "type": "SCALAR"
    },
    {
      "bufferView": 2,
      "byteOffset": 31368,
      "componentType": 5126,
      "count": 80,
      "max": [
        4.630000114440918,
        -0.005921754986047745,
        1.875324010848999
      ],
      "min": [
        -2.6329495906829834,
        -0.034486692398786545,
        0.445506751537323
      ],
      "type": "VEC3"
    },
    {
      "bufferView": 2,
      "byteOffset": 32328,
      "componentType": 5126,
      "count": 80,
      "max": [
        1.0,
        1.0,
        1.0
      ],
      "min": [
        -1.0,
        -1.0,
        -1.0
      ],
      "type": "VEC3"
    },
    {
      "bufferView": 1,
      "byteOffset": 10456,
      "componentType": 5126,
      "count": 80,
      "max": [
        0.7634524703025818,
        0.9869282245635986
      ],
      "min": [
        0.3242610991001129,
        0.5734204649925232
      ],
      "type": "VEC2"
    },
    {
      "bufferView": 0,
      "byteOffset": 14124,
      "componentType": 5125,
      "count": 120,
      "type": "SCALAR"
    },
    {
      "bufferView": 2,
      "byteOffset": 33288,
      "componentType": 5126,
      "count": 137,
      "max": [
        4.649999618530273,
        0.2076275497674942,
        0.13000023365020752
      ],
      "min": [
        -2.650000810623169,
        0.11237122118473053,
        -4.690288543701172
      ],
      "type": "VEC3"
    },
    {
      "bufferView": 2,
      "byteOffset": 34932,
      "componentType": 5126,
      "count": 137,
      "max": [
        1.0,
        1.0,
        1.0
      ],
      "min": [
        -1.0,
        -1.0,
        -1.0
      ],
      "type": "VEC3"
    },
    {
      "bufferView": 1,
      "byteOffset": 11096,
      "componentType": 5126,
      "count": 137,
      "max": [
        0.981412947177887,
        0.9822975993156433
      ],
      "min": [
        0.0,
        0.0
      ],
      "type": "VEC2"
    },
    {
      "bufferView": 0,
      "byteOffset": 14604,
      "componentType": 5125,
      "count": 375,
      "type": "SCALAR"
    },
    {
      "bufferView": 2,
      "byteOffset": 36576,
      "componentType": 5126,
      "count": 62,
      "max": [
        4.534374237060547,
        0.14897823333740234,
        0.07127566635608673
      ],
      "min": [
        -2.5343754291534424,
        -0.08512447774410248,
        -4.475500583648682
      ],
      "type": "VEC3"
    },
    {
      "bufferView": 2,
      "byteOffset": 37320,
      "componentType": 5126,
      "count": 62,
      "max": [
        1.0,
        0.0,
        1.0
      ],
      "min": [
        -1.0,
        -1.0,
        -1.0
      ],
      "type": "VEC3"
    },
    {
      "bufferView": 1,
      "byteOffset": 12192,
      "componentType": 5126,
      "count": 62,
      "max": [
        0.9166103005409241,
        0.9875611066818237
      ],
      "min": [
        0.47610971331596375,
        0.4936845004558563
      ],
      "type": "VEC2"
    },
    {
      "bufferView": 0,
      "byteOffset": 16104,
      "componentType": 5125,
      "count": 150,
      "type": "SCALAR"
    },
    {
      "bufferView": 2,
      "byteOffset": 38064,
      "componentType": 5126,
      "count": 4,
      "max": [
        4.649999618530273,
        0.20762741565704346,
        -0.37930309772491455
      ],
      "min": [
        4.403943061828613,
        0.20762740075588226,
        -1.3964546918869019
      ],
      "type": "VEC3"
    },
    {
      "bufferView": 2,
      "byteOffset": 38112,
      "componentType": 5126,
      "count": 4,
      "max": [
        2.482687122551397e-08,
        1.0,
        2.7764121668383268e-08
      ],
      "min": [
        -2.9599259931956112e-08,
        1.0,
        -1.408948691050682e-07
      ],
      "type": "VEC3"
    },
    {
      "bufferView": 1,
      "byteOffset": 12688,
      "componentType": 5126,
      "count": 4,
      "max": [
        0.2915433645248413,
        0.4936845302581787
      ],
      "min": [
        0.22275541722774506,
        0.4770442247390747
      ],
      "type": "VEC2"
    },
    {
      "bufferView": 0,
      "byteOffset": 16704,
      "componentType": 5125,
      "count": 6,
      "type": "SCALAR"
    },
    {
      "bufferView": 2,
      "byteOffset": 38160,
      "componentType": 5126,
      "count": 255,
      "max": [
        1.1055876016616821,
        0.060120660811662674,
        0.10564274340867996
      ],
      "min": [
        0.8944123983383179,
        -0.03539780527353287,
        -0.1055871844291687
      ],
      "type": "VEC3"
    },
    {
      "bufferView": 2,
      "byteOffset": 41220,
      "componentType": 5126,
      "count": 255,
      "max": [
        1.0,
        1.0,
        0.9999993443489075
      ],
      "min": [
        -1.0,
        -0.9904469847679138,
        -0.9999993443489075
      ],
      "type": "VEC3"
    },
    {
      "bufferView": 1,
      "byteOffset": 12720,
      "componentType": 5126,
      "count": 255,
      "max": [
        0.9576530456542969,
        0.985942542552948
      ],
      "min": [
        0.40802985429763794,
        0.8063498735427856
      ],
      "type": "VEC2"
    },
    {
      "bufferView": 0,
      "byteOffset": 16728,
      "componentType": 5125,
      "count": 948,
      "type": "SCALAR"
    },
    {
      "bufferView": 2,
      "byteOffset": 44280,
      "componentType": 5126,
      "count": 7460,
      "max": [
        1.1684234142303467,
        0.021755902096629143,
        1.9787510633468628
      ],
      "min": [
        -5.870416164398193,
        -0.05346961319446564,
        -0.2952245771884918
      ],
      "type": "VEC3"
    },
    {
      "bufferView": 2,
      "byteOffset": 133800,
      "componentType": 5126,
      "count": 7460,
      "max": [
        1.0,
        1.0,
        1.0
      ],
      "min": [
        -1.0,
        -1.0,
        -0.9999975562095642
      ],
      "type": "VEC3"
    },
    {
      "bufferView": 1,
      "byteOffset": 14760,
      "componentType": 5126,
      "count": 7460,
      "max": [
        1.0,
        0.9997304677963257
      ],
      "min": [
        0.3237430453300476,
        0.0
      ],
      "type": "VEC2"
    },
    {
      "bufferView": 0,
      "byteOffset": 20520,
      "componentType": 5125,
      "count": 18078,
      "type": "SCALAR"
    }
  ],
  "asset": {
    "extras": {
      "author": "GeniusPilot2016 (https://sketchfab.com/GeniusPilot2016)",
      "license": "CC-BY-4.0 (http://creativecommons.org/licenses/by/4.0/)",
      "source": "https://sketchfab.com/3d-models/laptop-e0e251ee87174c3c9553e1d046665427",
      "title": "Laptop"
    },
    "generator": "Sketchfab-15.14.0",
    "version": "2.0"
  },
  "bufferViews": [
    {
      "buffer": 0,
      "byteLength": 92832,
      "name": "floatBufferViews",
      "target": 34963
    },
    {
      "buffer": 0,
      "byteLength": 74440,
      "byteOffset": 92832,
      "byteStride": 8,
      "name": "floatBufferViews",
      "target": 34962
    },
    {
      "buffer": 0,
      "byteLength": 223320,
      "byteOffset": 167272,
      "byteStride": 12,
      "name": "floatBufferViews",
      "target": 34962
    }
  ],
  "buffers": [
    {
      "byteLength": 390592,
      "uri": "scene.bin"
    }
  ],
  "materials": [
    {
      "doubleSided": true,
      "name": "body",
      "pbrMetallicRoughness": {
        "baseColorFactor": [
          0.036228,
          0.036228,
          0.036228,
          1.0
        ],
        "metallicFactor": 0.0,
        "roughnessFactor": 0.5
      }
    },
    {
      "doubleSided": true,
      "name": "red_plastic",
      "pbrMetallicRoughness": {
        "baseColorFactor": [
          0.5,
          0.0,
          0.0,
          1.0
        ],
        "metallicFactor": 0.0,
        "roughnessFactor": 0.5
      }
    },
    {
      "doubleSided": true,
      "name": "power_button",
      "pbrMetallicRoughness": {
        "baseColorFactor": [
          0.8,
          0.8,
          0.8,
          1.0
        ],
        "metallicFactor": 0.0,
        "roughnessFactor": 0.5
      }
    },
    {
      "doubleSided": true,
      "name": "slots",
      "pbrMetallicRoughness": {
        "baseColorFactor": [
          0.0,
          0.0,
          0.0,
          1.0
        ],
        "metallicFactor": 0.0,
        "roughnessFactor": 0.5
      }
    },
    {
      "doubleSided": true,
      "name": "slots_2",
      "pbrMetallicRoughness": {
        "baseColorFactor": [
          0.3213,
          0.3213,
          0.3213,
          1.0
        ],
        "metallicFactor": 0.0,
        "roughnessFactor": 0.5
      }
    },
    {
      "doubleSided": true,
      "name": "display",
      "pbrMetallicRoughness": {
        "baseColorFactor": [
          0.0,
          0.0,
          0.0,
          1.0
        ],
        "metallicFactor": 0.0,
        "roughnessFactor": 0.25
      }
    },
    {
      "doubleSided": true,
      "name": "logo",
      "pbrMetallicRoughness": {
        "baseColorFactor": [
          0.3213,
          0.3213,
          0.3213,
          1.0
        ],
        "roughnessFactor": 0.5
      }
    }
  ],
  "meshes": [
    {
      "name": "Object_0",
      "primitives": [
        {
          "attributes": {
            "NORMAL": 1,
            "POSITION": 0,
            "TEXCOORD_0": 2
          },
          "indices": 3,
          "material": 0,
          "mode": 4
        }
      ]
    },
    {
      "name": "Object_1",
      "primitives": [
        {
          "attributes": {
            "NORMAL": 5,
            "POSITION": 4,
            "TEXCOORD_0": 6
          },
          "indices": 7,
          "material": 1,
          "mode": 4
        }
      ]
    },
    {
      "name": "Object_2",
      "primitives": [
        {
          "attributes": {
            "NORMAL": 9,
            "POSITION": 8,
            "TEXCOORD_0": 10
          },
          "indices": 11,
          "material": 2,
          "mode": 4
        }
      ]
    },
    {
      "name": "Object_3",
      "primitives": [
        {
          "attributes": {
            "NORMAL": 13,
            "POSITION": 12,
            "TEXCOORD_0": 14
          },
          "indices": 15,
          "material": 3,
          "mode": 4
        }
      ]
    },
    {
      "name": "Object_4",
      "primitives": [
        {
          "attributes": {
            "NORMAL": 17,
            "POSITION": 16,
            "TEXCOORD_0": 18
          },
          "indices": 19,
          "material": 4,
          "mode": 4
        }
      ]
    },
    {
      "name": "Object_5",
      "primitives": [
        {
          "attributes": {
            "NORMAL": 21,
            "POSITION": 20,
            "TEXCOORD_0": 22
          },
          "indices": 23,
          "material": 0,
          "mode": 4
        }
      ]
    },
    {
      "name": "Object_6",
      "primitives": [
        {
          "attributes": {
            "NORMAL": 25,
            "POSITION": 24,
            "TEXCOORD_0": 26
          },
          "indices": 27,
          "material": 5,
          "mode": 4
        }
      ]
    },
    {
      "name": "Object_7",
      "primitives": [
        {
          "attributes": {
            "NORMAL": 29,
            "POSITION": 28,
            "TEXCOORD_0": 30
          },
          "indices": 31,
          "material": 6,
          "mode": 4
        }
      ]
    },
    {
      "name": "Object_8",
      "primitives": [
        {
          "attributes": {
            "NORMAL": 33,
            "POSITION": 32,
            "TEXCOORD_0": 34
          },
          "indices": 35,
          "material": 1,
          "mode": 4
        }
      ]
    },
    {
      "name": "Object_9",
      "primitives": [
        {
          "attributes": {
            "NORMAL": 37,
            "POSITION": 36,
            "TEXCOORD_0": 38
          },
          "indices": 39,
          "material": 0,
          "mode": 4
        }
      ]
    }
  ],
  "nodes": [
    {
      "children": [
        1
      ],
      "matrix": [
        1.0,
        0.0,
        0.0,
        0.0,
        0.0,
        2.220446049250313e-16,
        -1.0,
        0.0,
        0.0,
        1.0,
        2.220446049250313e-16,
        0.0,
        0.0,
        0.0,
        0.0,
        1.0
      ],
      "name": "Sketchfab_model"
    },
    {
      "children": [
        2
      ],
      "name": "root"
    },
    {
      "children": [
        3,
        9,
        13,
        15
      ],
      "matrix": [
        1.0,
        0.0,
        0.0,
        0.0,
        0.0,
        2.220446049250313e-16,
        1.0,
        0.0,
        0.0,
        -1.0,
        2.220446049250313e-16,
        0.0,
        0.0,
        0.0,
        0.0,
        1.0
      ],
      "name": "GLTF_SceneRootNode"
    },
    {
      "children": [
        4,
        5,
        6,
        7,
        8
      ],
      "matrix": [
        0.12000003457069397,
        0.0,
        0.0,
        0.0,
        0.0,
        0.12000003457069397,
        0.0,
        0.0,
        0.0,
        0.0,
        0.12000003457069397,
        0.0,
        0.3794333338737488,
        0.019474729895591736,
        0.45667576789855957,
        1.0
      ],
      "name": "Cube_0"
    },
    {
      "mesh": 0,
      "name": "Object_4"
    },
    {
      "mesh": 1,
      "name": "Object_5"
    },
    {
      "mesh": 2,
      "name": "Object_6"
    },
    {
      "mesh": 3,
      "name": "Object_7"
    },
    {
      "mesh": 4,
      "name": "Object_8"
    },
    {
      "children": [
        10,
        11,
        12
      ],
      "matrix": [
        0.12000003457069397,
        0.0,
        0.0,
        0.0,
        0.0,
        -0.020837780149333438,
        0.11817696567189308,
        0.0,
        0.0,
        -0.11817696567189308,
        -0.020837780149333438,
        0.0,
        0.3794333338737488,
        0.02042773738503456,
        0.7290756106376648,
        1.0
      ],
      "name": "Cube.001_3"
    },
    {
      "mesh": 5,
      "name": "Object_10"
    },
    {
      "mesh": 6,
      "name": "Object_11"
    },
    {
      "mesh": 7,
      "name": "Object_12"
    },
    {
      "children": [
        14
      ],
      "matrix": [
        0.12000003457069397,
        0.0,
        0.0,
        0.0,
        0.0,
        -0.11999973156385664,
        0.000269669371820396,
        0.0,
        0.0,
        -0.000269669371820396,
        -0.11999973156385664,
        0.0,
        0.492193341255188,
        0.030189648270606995,
        0.497385174036026,
        1.0
      ],
      "name": "Cylinder_4"
    },
    {
      "mesh": 8,
      "name": "Object_14"
    },
    {
      "children": [
        16
      ],
      "matrix": [
        0.12000003457069397,
        0.0,
        0.0,
        0.0,
        0.0,
        0.11999973158829152,
        -0.0002696584983603215,
        0.0,
        0.0,
        0.0002696584983603215,
        0.11999973158829152,
        0.0,
        0.781700849533081,
        0.02744351513683796,
        0.4253894090652466,
        1.0
      ],
      "name": "Cube.002_5"
    },
    {
      "mesh": 9,
      "name": "Object_16"
    }
  ],
  "scene": 0,
  "scenes": [
    {
      "name": "Sketchfab_Scene",
      "nodes": [
        0
      ]
    }
  ]
}
